ffmpeg started on 2025-06-04 at 20:51:12
Report written to "D:\Convert\FFMetrics\reports\psnr_report-6.txt"
Log level: 32
Command line:
ffmpeg -hide_banner -nostdin -i "G:\\\xc0\xed\xe8\xec\xe5\\\xce\xed\xe3\xee\xe8\xed\xe3\xe8\\!_36_\xce\xf1\xe5\xed\xfc_2024\\DreamCast\\\xc4\xe5\xf2\xf1\xea\xe0\xff \xc4\xe5\xeb\xe8\xea\xee\\[DC] Delicos Nursery - 09_Telegram_HEVC.mkv" -i "G:\\\xc0\xed\xe8\xec\xe5\\\xce\xed\xe3\xee\xe8\xed\xe3\xe8\\!_36_\xce\xf1\xe5\xed\xfc_2024\\DreamCast\\\xc4\xe5\xf2\xf1\xea\xe0\xff \xc4\xe5\xeb\xe8\xea\xee\\[DC] Delicos Nursery - 09_Telegram.mp4" -lavfi "[0:v]settb=AVTB,setpts=PTS-STARTPTS,format=pix_fmts=yuv420p10,fps=24000/1001,scale=1920:1080:flags=bicubic[main];[1:v]settb=AVTB,setpts=PTS-STARTPTS,format=pix_fmts=yuv420p,fps=24000/1001,scale=1920:1080:flags=bicubic[ref];[main][ref]psnr=eof_action=endall:stats_file='D\\:/Convert/FFMetrics/logs/psnr_logfile-6.txt'" -f null -
Input #0, matroska,webm, from 'G:\Аниме\Онгоинги\!_36_Осень_2024\DreamCast\Детская Делико\[DC] Delicos Nursery - 09_Telegram_HEVC.mkv':
  Metadata:
    COMPATIBLE_BRANDS: isomiso2avc1mp41
    MAJOR_BRAND     : isom
    MINOR_VERSION   : 512
    ENCODER         : Lavf61.7.100
  Duration: 00:23:46.69, start: -0.021000, bitrate: 1649 kb/s
  Stream #0:0: Video: hevc (Main 10), yuv420p10le(tv, bt709, progressive), 1920x1080 [SAR 1:1 DAR 16:9], 23.98 fps, 23.98 tbr, 1k tbn (default)
      Metadata:
        HANDLER_NAME    : VideoHandler
        VENDOR_ID       : [0][0][0][0]
        ENCODER         : Lavc61.19.100 libx265
        BPS             : 1452291
        DURATION        : 00:23:46.591708333
        NUMBER_OF_FRAMES: 34204
        NUMBER_OF_BYTES : 258978262
        _STATISTICS_WRITING_APP: mkvpropedit v66.0.0 ('Josie') 64-bit
        _STATISTICS_WRITING_DATE_UTC: 2025-05-30 13:20:21
        _STATISTICS_TAGS: BPS DURATION NUMBER_OF_FRAMES NUMBER_OF_BYTES
  Stream #0:1: Audio: aac (LC), 48000 Hz, stereo, fltp (default)
      Metadata:
        HANDLER_NAME    : SoundHandler
        VENDOR_ID       : [0][0][0][0]
        ENCODER         : Lavc61.19.100 aac
        BPS             : 193519
        DURATION        : 00:23:46.688000000
        NUMBER_OF_FRAMES: 66877
        NUMBER_OF_BYTES : 34511556
        _STATISTICS_WRITING_APP: mkvpropedit v66.0.0 ('Josie') 64-bit
        _STATISTICS_WRITING_DATE_UTC: 2025-05-30 13:20:21
        _STATISTICS_TAGS: BPS DURATION NUMBER_OF_FRAMES NUMBER_OF_BYTES
Input #1, mov,mp4,m4a,3gp,3g2,mj2, from 'G:\Аниме\Онгоинги\!_36_Осень_2024\DreamCast\Детская Делико\[DC] Delicos Nursery - 09_Telegram.mp4':
  Metadata:
    major_brand     : isom
    minor_version   : 512
    compatible_brands: isomiso2avc1mp41
    encoder         : Lavf61.1.100
  Duration: 00:23:46.66, start: 0.000000, bitrate: 3836 kb/s
  Stream #1:0[0x1](und): Video: h264 (High) (avc1 / 0x31637661), yuv420p(tv, bt709, progressive), 1920x1080 [SAR 1:1 DAR 16:9], 3688 kb/s, 23.98 fps, 23.98 tbr, 24k tbn (default)
      Metadata:
        handler_name    : VideoHandler
        vendor_id       : [0][0][0][0]
        encoder         : Lavc61.3.100 h264_qsv
  Stream #1:1[0x2](und): Audio: aac (HE-AACv2) (mp4a / 0x6134706D), 48000 Hz, stereo, fltp, 144 kb/s (default)
      Metadata:
        handler_name    : SoundHandler
        vendor_id       : [0][0][0][0]
Stream mapping:
  Stream #0:0 (hevc) -> settb:default
  Stream #1:0 (h264) -> settb:default
  psnr:default -> Stream #0:0 (wrapped_avframe)
  Stream #0:1 -> #0:1 (aac (native) -> pcm_s16le (native))
Output #0, null, to 'pipe:':
  Metadata:
    COMPATIBLE_BRANDS: isomiso2avc1mp41
    MAJOR_BRAND     : isom
    MINOR_VERSION   : 512
    encoder         : Lavf61.7.100
  Stream #0:0: Video: wrapped_avframe, yuv420p10le(tv, bt709, progressive), 1920x1080 [SAR 1:1 DAR 16:9], q=2-31, 200 kb/s, 23.98 fps, 23.98 tbn
      Metadata:
        encoder         : Lavc61.19.100 wrapped_avframe
  Stream #0:1: Audio: pcm_s16le, 48000 Hz, stereo, s16, 1536 kb/s (default)
      Metadata:
        HANDLER_NAME    : SoundHandler
        VENDOR_ID       : [0][0][0][0]
        _STATISTICS_TAGS: BPS DURATION NUMBER_OF_FRAMES NUMBER_OF_BYTES
        BPS             : 193519
        DURATION        : 00:23:46.688000000
        NUMBER_OF_FRAMES: 66877
        NUMBER_OF_BYTES : 34511556
        _STATISTICS_WRITING_APP: mkvpropedit v66.0.0 ('Josie') 64-bit
        _STATISTICS_WRITING_DATE_UTC: 2025-05-30 13:20:21
        encoder         : Lavc61.19.100 pcm_s16le
frame=  163 fps=0.0 q=-0.0 size=N/A time=00:00:06.79 bitrate=N/A speed=12.9x    frame=  377 fps=364 q=-0.0 size=N/A time=00:00:15.72 bitrate=N/A speed=15.2x    frame=  582 fps=374 q=-0.0 size=N/A time=00:00:24.27 bitrate=N/A speed=15.6x    frame=  822 fps=398 q=-0.0 size=N/A time=00:00:34.28 bitrate=N/A speed=16.6x    frame= 1054 fps=407 q=-0.0 size=N/A time=00:00:43.96 bitrate=N/A speed=  17x    frame= 1228 fps=397 q=-0.0 size=N/A time=00:00:51.21 bitrate=N/A speed=16.5x    frame= 1390 fps=384 q=-0.0 size=N/A time=00:00:57.97 bitrate=N/A speed=  16x    frame= 1596 fps=386 q=-0.0 size=N/A time=00:01:06.56 bitrate=N/A speed=16.1x    frame= 1801 fps=388 q=-0.0 size=N/A time=00:01:15.11 bitrate=N/A speed=16.2x    frame= 2032 fps=394 q=-0.0 size=N/A time=00:01:24.75 bitrate=N/A speed=16.4x    frame= 2204 fps=388 q=-0.0 size=N/A time=00:01:31.92 bitrate=N/A speed=16.2x    frame= 2397 fps=387 q=-0.0 size=N/A time=00:01:39.97 bitrate=N/A speed=16.1x    frame= 2574 fps=384 q=-0.0 size=N/A time=00:01:47.35 bitrate=N/A speed=  16x    frame= 2774 fps=384 q=-0.0 size=N/A time=00:01:55.69 bitrate=N/A speed=  16x    frame= 2959 fps=382 q=-0.0 size=N/A time=00:02:03.41 bitrate=N/A speed=15.9x    frame= 3170 fps=384 q=-0.0 size=N/A time=00:02:12.21 bitrate=N/A speed=  16x    frame= 3377 fps=385 q=-0.0 size=N/A time=00:02:20.84 bitrate=N/A speed=16.1x    frame= 3576 fps=385 q=-0.0 size=N/A time=00:02:29.14 bitrate=N/A speed=  16x    frame= 3763 fps=384 q=-0.0 size=N/A time=00:02:36.94 bitrate=N/A speed=  16x    frame= 3982 fps=386 q=-0.0 size=N/A time=00:02:46.08 bitrate=N/A speed=16.1x    frame= 4188 fps=387 q=-0.0 size=N/A time=00:02:54.67 bitrate=N/A speed=16.1x    frame= 4395 fps=387 q=-0.0 size=N/A time=00:03:03.30 bitrate=N/A speed=16.1x    frame= 4602 fps=388 q=-0.0 size=N/A time=00:03:11.94 bitrate=N/A speed=16.2x    frame= 4824 fps=390 q=-0.0 size=N/A time=00:03:21.20 bitrate=N/A speed=16.2x    frame= 5020 fps=389 q=-0.0 size=N/A time=00:03:29.37 bitrate=N/A speed=16.2x    frame= 5234 fps=390 q=-0.0 size=N/A time=00:03:38.30 bitrate=N/A speed=16.3x    frame= 5477 fps=393 q=-0.0 size=N/A time=00:03:48.43 bitrate=N/A speed=16.4x    frame= 5706 fps=395 q=-0.0 size=N/A time=00:03:57.98 bitrate=N/A speed=16.5x    frame= 5966 fps=399 q=-0.0 size=N/A time=00:04:08.83 bitrate=N/A speed=16.6x    frame= 6181 fps=400 q=-0.0 size=N/A time=00:04:17.79 bitrate=N/A speed=16.7x    frame= 6412 fps=401 q=-0.0 size=N/A time=00:04:27.43 bitrate=N/A speed=16.7x    frame= 6572 fps=398 q=-0.0 size=N/A time=00:04:34.10 bitrate=N/A speed=16.6x    frame= 6797 fps=399 q=-0.0 size=N/A time=00:04:43.49 bitrate=N/A speed=16.7x    frame= 7028 fps=401 q=-0.0 size=N/A time=00:04:53.12 bitrate=N/A speed=16.7x    frame= 7257 fps=402 q=-0.0 size=N/A time=00:05:02.67 bitrate=N/A speed=16.8x    frame= 7527 fps=405 q=-0.0 size=N/A time=00:05:13.93 bitrate=N/A speed=16.9x    frame= 7691 fps=403 q=-0.0 size=N/A time=00:05:20.77 bitrate=N/A speed=16.8x    frame= 7910 fps=403 q=-0.0 size=N/A time=00:05:29.91 bitrate=N/A speed=16.8x    frame= 8157 fps=405 q=-0.0 size=N/A time=00:05:40.21 bitrate=N/A speed=16.9x    frame= 8326 fps=403 q=-0.0 size=N/A time=00:05:47.26 bitrate=N/A speed=16.8x    frame= 8529 fps=403 q=-0.0 size=N/A time=00:05:55.73 bitrate=N/A speed=16.8x    frame= 8802 fps=406 q=-0.0 size=N/A time=00:06:07.11 bitrate=N/A speed=16.9x    frame= 9061 fps=408 q=-0.0 size=N/A time=00:06:17.91 bitrate=N/A speed=  17x    frame= 9327 fps=411 q=-0.0 size=N/A time=00:06:29.01 bitrate=N/A speed=17.1x    frame= 9510 fps=410 q=-0.0 size=N/A time=00:06:36.64 bitrate=N/A speed=17.1x    frame= 9749 fps=411 q=-0.0 size=N/A time=00:06:46.61 bitrate=N/A speed=17.1x    frame= 9987 fps=412 q=-0.0 size=N/A time=00:06:56.54 bitrate=N/A speed=17.2x    frame=10214 fps=412 q=-0.0 size=N/A time=00:07:06.00 bitrate=N/A speed=17.2x    frame=10441 fps=413 q=-0.0 size=N/A time=00:07:15.47 bitrate=N/A speed=17.2x    frame=10668 fps=413 q=-0.0 size=N/A time=00:07:24.94 bitrate=N/A speed=17.2x    frame=10907 fps=415 q=-0.0 size=N/A time=00:07:34.91 bitrate=N/A speed=17.3x    frame=11146 fps=415 q=-0.0 size=N/A time=00:07:44.88 bitrate=N/A speed=17.3x    frame=11397 fps=417 q=-0.0 size=N/A time=00:07:55.34 bitrate=N/A speed=17.4x    frame=11666 fps=419 q=-0.0 size=N/A time=00:08:06.56 bitrate=N/A speed=17.5x    frame=11871 fps=418 q=-0.0 size=N/A time=00:08:15.11 bitrate=N/A speed=17.4x    frame=12100 fps=419 q=-0.0 size=N/A time=00:08:24.67 bitrate=N/A speed=17.5x    frame=12334 fps=419 q=-0.0 size=N/A time=00:08:34.43 bitrate=N/A speed=17.5x    frame=12588 fps=421 q=-0.0 size=N/A time=00:08:45.02 bitrate=N/A speed=17.5x    frame=12807 fps=421 q=-0.0 size=N/A time=00:08:54.15 bitrate=N/A speed=17.5x    frame=13048 fps=421 q=-0.0 size=N/A time=00:09:04.21 bitrate=N/A speed=17.6x    frame=13267 fps=422 q=-0.0 size=N/A time=00:09:13.34 bitrate=N/A speed=17.6x    frame=13475 fps=421 q=-0.0 size=N/A time=00:09:22.01 bitrate=N/A speed=17.6x    frame=13711 fps=422 q=-0.0 size=N/A time=00:09:31.86 bitrate=N/A speed=17.6x    frame=13955 fps=423 q=-0.0 size=N/A time=00:09:42.03 bitrate=N/A speed=17.6x    frame=14192 fps=423 q=-0.0 size=N/A time=00:09:51.92 bitrate=N/A speed=17.7x    frame=14432 fps=424 q=-0.0 size=N/A time=00:10:01.93 bitrate=N/A speed=17.7x    frame=14614 fps=423 q=-0.0 size=N/A time=00:10:09.52 bitrate=N/A speed=17.6x    frame=14862 fps=424 q=-0.0 size=N/A time=00:10:19.86 bitrate=N/A speed=17.7x    frame=15096 fps=424 q=-0.0 size=N/A time=00:10:29.62 bitrate=N/A speed=17.7x    frame=15344 fps=425 q=-0.0 size=N/A time=00:10:39.97 bitrate=N/A speed=17.7x    frame=15595 fps=426 q=-0.0 size=N/A time=00:10:50.44 bitrate=N/A speed=17.8x    frame=15823 fps=426 q=-0.0 size=N/A time=00:10:59.95 bitrate=N/A speed=17.8x    frame=15985 fps=424 q=-0.0 size=N/A time=00:11:06.70 bitrate=N/A speed=17.7x    frame=16242 fps=425 q=-0.0 size=N/A time=00:11:17.42 bitrate=N/A speed=17.7x    frame=16485 fps=426 q=-0.0 size=N/A time=00:11:27.56 bitrate=N/A speed=17.8x    frame=16707 fps=426 q=-0.0 size=N/A time=00:11:36.82 bitrate=N/A speed=17.8x    frame=16940 fps=426 q=-0.0 size=N/A time=00:11:46.53 bitrate=N/A speed=17.8x    frame=17150 fps=426 q=-0.0 size=N/A time=00:11:55.29 bitrate=N/A speed=17.8x    frame=17384 fps=426 q=-0.0 size=N/A time=00:12:05.05 bitrate=N/A speed=17.8x    frame=17582 fps=426 q=-0.0 size=N/A time=00:12:13.31 bitrate=N/A speed=17.8x    frame=17797 fps=426 q=-0.0 size=N/A time=00:12:22.28 bitrate=N/A speed=17.8x    frame=18053 fps=427 q=-0.0 size=N/A time=00:12:32.96 bitrate=N/A speed=17.8x    frame=18314 fps=428 q=-0.0 size=N/A time=00:12:43.88 bitrate=N/A speed=17.8x    frame=18557 fps=428 q=-0.0 size=N/A time=00:12:53.98 bitrate=N/A speed=17.9x    frame=18809 fps=429 q=-0.0 size=N/A time=00:13:04.49 bitrate=N/A speed=17.9x    frame=19068 fps=430 q=-0.0 size=N/A time=00:13:15.29 bitrate=N/A speed=17.9x    frame=19313 fps=430 q=-0.0 size=N/A time=00:13:25.51 bitrate=N/A speed=17.9x    frame=19564 fps=431 q=-0.0 size=N/A time=00:13:35.98 bitrate=N/A speed=  18x    frame=19816 fps=431 q=-0.0 size=N/A time=00:13:46.49 bitrate=N/A speed=  18x    frame=20067 fps=432 q=-0.0 size=N/A time=00:13:56.96 bitrate=N/A speed=  18x    frame=20285 fps=432 q=-0.0 size=N/A time=00:14:06.05 bitrate=N/A speed=  18x    frame=20521 fps=432 q=-0.0 size=N/A time=00:14:15.89 bitrate=N/A speed=  18x    frame=20736 fps=432 q=-0.0 size=N/A time=00:14:24.86 bitrate=N/A speed=  18x    frame=20964 fps=432 q=-0.0 size=N/A time=00:14:34.37 bitrate=N/A speed=  18x    frame=21193 fps=432 q=-0.0 size=N/A time=00:14:43.92 bitrate=N/A speed=  18x    frame=21417 fps=432 q=-0.0 size=N/A time=00:14:53.26 bitrate=N/A speed=  18x    frame=21618 fps=432 q=-0.0 size=N/A time=00:15:01.65 bitrate=N/A speed=  18x    frame=21841 fps=432 q=-0.0 size=N/A time=00:15:10.95 bitrate=N/A speed=  18x    frame=22054 fps=432 q=-0.0 size=N/A time=00:15:19.83 bitrate=N/A speed=  18x    frame=22285 fps=432 q=-0.0 size=N/A time=00:15:29.47 bitrate=N/A speed=  18x    frame=22505 fps=432 q=-0.0 size=N/A time=00:15:38.64 bitrate=N/A speed=  18x    frame=22761 fps=432 q=-0.0 size=N/A time=00:15:49.32 bitrate=N/A speed=  18x    frame=23005 fps=433 q=-0.0 size=N/A time=00:15:59.50 bitrate=N/A speed=18.1x    frame=23227 fps=433 q=-0.0 size=N/A time=00:16:08.75 bitrate=N/A speed=  18x    frame=23468 fps=433 q=-0.0 size=N/A time=00:16:18.81 bitrate=N/A speed=18.1x    frame=23702 fps=433 q=-0.0 size=N/A time=00:16:28.57 bitrate=N/A speed=18.1x    frame=23937 fps=433 q=-0.0 size=N/A time=00:16:38.37 bitrate=N/A speed=18.1x    frame=24165 fps=434 q=-0.0 size=N/A time=00:16:47.88 bitrate=N/A speed=18.1x    frame=24357 fps=433 q=-0.0 size=N/A time=00:16:55.88 bitrate=N/A speed=18.1x    frame=24573 fps=433 q=-0.0 size=N/A time=00:17:04.89 bitrate=N/A speed=18.1x    frame=24750 fps=432 q=-0.0 size=N/A time=00:17:12.28 bitrate=N/A speed=  18x    frame=24958 fps=432 q=-0.0 size=N/A time=00:17:20.95 bitrate=N/A speed=  18x    frame=25152 fps=431 q=-0.0 size=N/A time=00:17:29.04 bitrate=N/A speed=  18x    frame=25371 fps=431 q=-0.0 size=N/A time=00:17:38.18 bitrate=N/A speed=  18x    frame=25555 fps=431 q=-0.0 size=N/A time=00:17:45.85 bitrate=N/A speed=  18x    frame=25748 fps=430 q=-0.0 size=N/A time=00:17:53.90 bitrate=N/A speed=17.9x    frame=25996 fps=431 q=-0.0 size=N/A time=00:18:04.24 bitrate=N/A speed=  18x    frame=26254 fps=431 q=-0.0 size=N/A time=00:18:15.01 bitrate=N/A speed=  18x    frame=26504 fps=432 q=-0.0 size=N/A time=00:18:25.43 bitrate=N/A speed=  18x    frame=26769 fps=432 q=-0.0 size=N/A time=00:18:36.49 bitrate=N/A speed=  18x    frame=27006 fps=432 q=-0.0 size=N/A time=00:18:46.37 bitrate=N/A speed=  18x    frame=27250 fps=433 q=-0.0 size=N/A time=00:18:56.55 bitrate=N/A speed=18.1x    frame=27519 fps=434 q=-0.0 size=N/A time=00:19:07.77 bitrate=N/A speed=18.1x    frame=27746 fps=434 q=-0.0 size=N/A time=00:19:17.23 bitrate=N/A speed=18.1x    frame=27975 fps=434 q=-0.0 size=N/A time=00:19:26.79 bitrate=N/A speed=18.1x    frame=28195 fps=434 q=-0.0 size=N/A time=00:19:35.96 bitrate=N/A speed=18.1x    frame=28420 fps=434 q=-0.0 size=N/A time=00:19:45.35 bitrate=N/A speed=18.1x    frame=28630 fps=433 q=-0.0 size=N/A time=00:19:54.10 bitrate=N/A speed=18.1x    frame=28876 fps=434 q=-0.0 size=N/A time=00:20:04.36 bitrate=N/A speed=18.1x    frame=29109 fps=434 q=-0.0 size=N/A time=00:20:14.08 bitrate=N/A speed=18.1x    frame=29334 fps=434 q=-0.0 size=N/A time=00:20:23.47 bitrate=N/A speed=18.1x    frame=29593 fps=434 q=-0.0 size=N/A time=00:20:34.27 bitrate=N/A speed=18.1x    frame=29833 fps=435 q=-0.0 size=N/A time=00:20:44.28 bitrate=N/A speed=18.1x    frame=30088 fps=435 q=-0.0 size=N/A time=00:20:54.92 bitrate=N/A speed=18.1x    frame=30333 fps=435 q=-0.0 size=N/A time=00:21:05.13 bitrate=N/A speed=18.2x    frame=30584 fps=436 q=-0.0 size=N/A time=00:21:15.60 bitrate=N/A speed=18.2x    frame=30808 fps=436 q=-0.0 size=N/A time=00:21:24.95 bitrate=N/A speed=18.2x    frame=31044 fps=436 q=-0.0 size=N/A time=00:21:34.79 bitrate=N/A speed=18.2x    frame=31319 fps=437 q=-0.0 size=N/A time=00:21:46.26 bitrate=N/A speed=18.2x    frame=31552 fps=437 q=-0.0 size=N/A time=00:21:55.98 bitrate=N/A speed=18.2x    frame=31808 fps=437 q=-0.0 size=N/A time=00:22:06.65 bitrate=N/A speed=18.2x    frame=31965 fps=436 q=-0.0 size=N/A time=00:22:13.20 bitrate=N/A speed=18.2x    frame=32116 fps=435 q=-0.0 size=N/A time=00:22:19.50 bitrate=N/A speed=18.2x    frame=32260 fps=434 q=-0.0 size=N/A time=00:22:25.51 bitrate=N/A speed=18.1x    frame=32409 fps=433 q=-0.0 size=N/A time=00:22:31.72 bitrate=N/A speed=18.1x    frame=32565 fps=432 q=-0.0 size=N/A time=00:22:38.23 bitrate=N/A speed=  18x    frame=32731 fps=431 q=-0.0 size=N/A time=00:22:45.15 bitrate=N/A speed=  18x    frame=32913 fps=431 q=-0.0 size=N/A time=00:22:52.74 bitrate=N/A speed=  18x    frame=33093 fps=430 q=-0.0 size=N/A time=00:23:00.25 bitrate=N/A speed=  18x    frame=33275 fps=430 q=-0.0 size=N/A time=00:23:07.84 bitrate=N/A speed=17.9x    frame=33438 fps=429 q=-0.0 size=N/A time=00:23:14.64 bitrate=N/A speed=17.9x    frame=33606 fps=429 q=-0.0 size=N/A time=00:23:21.65 bitrate=N/A speed=17.9x    frame=33801 fps=428 q=-0.0 size=N/A time=00:23:29.78 bitrate=N/A speed=17.9x    frame=34013 fps=428 q=-0.0 size=N/A time=00:23:38.62 bitrate=N/A speed=17.9x    [Parsed_psnr_10 @ 000001bd2d5a2680] PSNR y:45.413521 u:48.868695 v:49.908299 average:46.376692 min:31.395370 max:inf
[out#0/null @ 000001bd2d5b0180] video:14697KiB audio:267508KiB subtitle:0KiB other streams:0KiB global headers:0KiB muxing overhead: unknown
frame=34204 fps=428 q=-0.0 Lsize=N/A time=00:23:46.59 bitrate=N/A speed=17.9x    
